<?xml version="1.0" standalone="no"?><!DOCTYPE svg PUBLIC "-//W3C//DTD SVG 1.1//EN" "http://www.w3.org/Graphics/SVG/1.1/DTD/svg11.dtd"><svg t="1578963822484" class="icon" viewBox="0 0 1024 1024" version="1.1" xmlns="http://www.w3.org/2000/svg" p-id="3237" width="48" height="48" xmlns:xlink="http://www.w3.org/1999/xlink"><defs><style type="text/css">html, * {  }
</style></defs><path d="M512 535.272727c141.963636 0 256-114.036364 256-256S730.763636 0 512 0c-214.109091 0-256 137.309091-256 279.272727s114.036364 256 256 256z m0-488.727272c179.2 0 209.454545 114.036364 209.454545 230.4S628.363636 488.727273 512 488.727273s-209.454545-95.418182-209.454545-211.781818S337.454545 46.545455 512 46.545455z m232.727273 512H279.272727C151.272727 558.545455 46.545455 663.272727 46.545455 791.272727s104.727273 232.727273 232.727272 232.727273h465.454546c128 0 232.727273-104.727273 232.727272-232.727273s-104.727273-232.727273-232.727272-232.727272z m0 418.90909H279.272727c-102.4 0-186.181818-83.781818-186.181818-186.181818s83.781818-186.181818 186.181818-186.181818h465.454546c102.4 0 186.181818 83.781818 186.181818 186.181818s-83.781818 186.181818-186.181818 186.181818z" fill="#999999" p-id="3238"></path></svg>